#!OML:ASF E:\emotionWalksFemale\Project 1\Capture day 1\Session 1\Female1.ASF
:FULLY-SPECIFIED
:DEGREES
867
root 8.66035 15.4433 7.06449 180.267 4.9557 -180.71
lowerback 8.22382 2.80921 2.94489
upperback -4.11605 4.13585 -0.568341
thorax -8.73379 1.84581 -2.89741
lowerneck -7.87352 8.55937 2.02158
upperneck 9.5221 10.5497 5.33554
head 4.37026 5.49607 2.09331
rclavicle -2.23633e-016 8.34896e-015
rhumerus -35.4921 16.9528 -87.556
rradius 58.3819
rwrist 8.47258
rhand -6.88278 -52.0492
rfingers 7.12502
rthumb -161.016 -261.143
lclavicle -2.23633e-016 8.34896e-015
lhumerus -52.8944 15.1704 58.1923
lradius 40.2609
lwrist -8.54624
lhand -3.02119 -34.7451
lfingers 7.12502
lthumb 22.6936 -6.05947
rfemur 11.408 3.30276 22.4704
rtibia 41.2563
rfoot 16.2314 -2.63227
rtoes -0.287532
lfemur -20.9824 -7.55769 -25.7246
ltibia 25.1639
lfoot -10.0496 14.4131
ltoes -13.9489
868
root 8.64233 15.4586 6.94226 180.225 4.76508 -181.024
lowerback 8.17541 2.74317 2.66117
upperback -4.05384 4.00144 -0.647992
thorax -8.65882 1.7959 -2.79788
lowerneck -7.80794 8.61892 2.14147
upperneck 9.39328 10.645 5.16463
head 4.32565 5.53864 2.01236
rclavicle 1.62134e-014 -5.96354e-016
rhumerus -35.6504 16.7076 -87.4795
rradius 58.6207
rwrist 8.31853
rhand -6.93181 -52.1441
rfingers 7.12502
rthumb -161.064 -261.242
lclavicle 1.62134e-014 -5.96354e-016
lhumerus -52.3738 15.1679 58.4689
lradius 40.4976
lwrist -8.27089
lhand -3.36536 -35.2831
lfingers 7.12502
lthumb 22.3633 -6.5575
rfemur 9.80553 2.86714 21.8723
rtibia 44.223
rfoot 17.1858 -3.2237
rtoes 1.76354
lfemur -20.1829 -7.38159 -26.3161
ltibia 24.6659
lfoot -10.0969 14.161
ltoes -13.7188
869
root 8.62559 15.4744 6.82533 180.13 4.67322 -181.383
lowerback 8.37812 2.71147 2.27396
upperback -4.01113 3.90752 -0.721367
thorax -8.75612 1.76613 -2.65662
lowerneck -8.06945 8.63545 2.28948
upperneck 9.47922 10.6594 4.97513
head 4.43004 5.54627 1.94786
rclavicle 4.58696e-014 2.98177e-015
rhumerus -35.887 16.5576 -87.3532
rradius 58.9301
rwrist 8.32161
rhand -6.72311 -52.1836
rfingers 7.12502
rthumb -160.863 -261.262
lclavicle 4.58696e-014 2.98177e-015
lhumerus -51.841 14.8904 58.9293
lradius 40.8067
lwrist -7.75735
lhand -3.62971 -35.4014
lfingers 7.12502
lthumb 22.1095 -6.64546
rfemur 8.19613 2.41146 21.1998
rtibia 47.0864
rfoot 18.6784 -4.1232
rtoes 6.66786
lfemur -19.3453 -7.19174 -26.9093
ltibia 24.1603
lfoot -10.4619 13.8556
ltoes -11.3239
870
root 8.60979 15.4906 6.70892 179.948 4.58412 -181.789
lowerback 8.88273 2.69457 1.80997
upperback -4.10403 3.83229 -0.813741
thorax -9.18085 1.74217 -2.51991
lowerneck -8.20555 8.6291 2.54644
upperneck 10.1942 10.5829 4.97461
head 4.25549 5.54 1.74358
rclavicle -2.17421e-015 1.05356e-014
rhumerus -36.3663 16.361 -87.2861
rradius 59.2061
rwrist 8.45584
rhand -6.9061 -52.2095
rfingers 7.12502
rthumb -161.039 -261.305
lclavicle -2.17421e-015 1.05356e-014
lhumerus -51.4955 14.3547 59.4406
lradius 41.2268
lwrist -7.24373
lhand -4.02181 -35.0551
lfingers 7.12502
lthumb 21.733 -6.25514
rfemur 6.64961 1.84132 20.4428
rtibia 49.8215
rfoot 18.9222 -4.82112
rtoes 4.76419
lfemur -18.4635 -7.01642 -27.5717
ltibia 23.6735
lfoot -10.6097 13.6184
ltoes -10.2597
871
root 8.59449 15.5016 6.59245 179.749 4.40492 -182.084
lowerback 8.71245 2.6115 1.49198
upperback -3.80794 3.66301 -0.8206
thorax -8.78499 1.68501 -2.29939
lowerneck -8.26066 8.68891 2.58467
upperneck 10.1258 10.684 4.80011
head 4.25374 5.58345 1.69263
rclavicle 6.83074e-014 -9.93923e-016
rhumerus -36.1503 16.2711 -87.0173
rradius 59.378
rwrist 8.41463
rhand -7.06906 -52.4399
rfingers 7.12502
rthumb -161.196 -261.551
lclavicle 6.83074e-014 -9.93923e-016
lhumerus -50.7589 14.5399 59.9061
lradius 41.5433
lwrist -7.13986
lhand -4.43532 -35.0654
lfingers 7.12502
lthumb 21.3359 -6.22
rfemur 5.20558 1.28681 19.9
rtibia 52.4123
rfoot 19.0694 -5.65819
rtoes 3.2231
lfemur -17.5654 -6.86607 -28.1338
ltibia 23.2066
lfoot -10.665 13.3183
ltoes -10.6572
872
root 8.57957 15.5072 6.47765 179.554 4.24427 -182.313
lowerback 8.82328 2.5066 1.24459
upperback -3.72187 3.48804 -0.824136
thorax -8.77825 1.61284 -2.1403
lowerneck -8.07626 8.72877 2.46005
upperneck 9.58493 10.7921 4.69846
head 4.49535 5.60588 1.84291
rclavicle 1.46604e-014 -4.96962e-015
rhumerus -36.2812 16.1473 -86.894
rradius 59.5349
rwrist 8.52978
rhand -7.03729 -52.6675
rfingers 7.12502
rthumb -161.165 -261.776
lclavicle 1.46604e-014 -4.96962e-015
lhumerus -50.337 14.5623 60.1793
lradius 41.8666
lwrist -7.20399
lhand -4.63122 -35.3036
lfingers 7.12502
lthumb 21.1477 -6.43703
rfemur 3.81087 0.815427 19.4729
rtibia 54.8627
rfoot 19.187 -6.51458
rtoes 4.07157
lfemur -16.6857 -6.64893 -28.6204
ltibia 22.7804
lfoot -10.7957 13.0583
ltoes -12.5126
873
root 8.56434 15.5135 6.36663 179.435 3.94981 -182.582
lowerback 9.06485 2.37833 0.999378
upperback -3.76412 3.28233 -0.90314
thorax -8.98302 1.52055 -2.06922
lowerneck -7.95571 8.76869 2.39494
upperneck 9.59747 10.8319 4.89272
head 4.45882 5.63019 1.91262
rclavicle -7.86442e-015 5.76476e-015
rhumerus -36.7667 15.834 -86.9021
rradius 59.9012
rwrist 8.64042
rhand -7.34217 -52.5205
rfingers 7.12502
rthumb -161.458 -261.657
lclavicle -7.86442e-015 5.76476e-015
lhumerus -49.9298 14.2401 60.5
lradius 42.2515
lwrist -7.25047
lhand -4.59834 -35.1925
lfingers 7.12502
lthumb 21.1793 -6.32947
rfemur 2.33129 0.096429 18.9182
rtibia 57.1652
rfoot 19.4685 -7.07535
rtoes 7.62269
lfemur -15.9655 -6.569 -29.1306
ltibia 22.5017
lfoot -11.048 12.935
ltoes -13.9841
874
root 8.55255 15.5197 6.26109 179.371 3.53369 -182.775
lowerback 9.17366 2.21359 0.718085
upperback -3.68989 3.02429 -0.880211
thorax -8.99122 1.41113 -1.84799
lowerneck -8.18298 8.86509 2.47251
upperneck 10.2322 10.9117 4.97286
head 4.25421 5.7003 1.77294
rclavicle 2.23509e-014 8.34896e-015
rhumerus -37.0414 15.6575 -86.7944
rradius 60.377
rwrist 8.36538
rhand -7.79363 -52.3688
rfingers 7.12502
rthumb -161.893 -261.546
lclavicle 2.23509e-014 8.34896e-015
lhumerus -49.3365 14.2611 60.8925
lradius 42.5275
lwrist -7.34891
lhand -4.5995 -35.405
lfingers 7.12502
lthumb 21.1782 -6.54184
rfemur 0.770169 -0.760552 18.474
rtibia 59.3201
rfoot 18.1257 -6.84504
rtoes 5.36271
lfemur -15.4035 -6.48781 -29.5325
ltibia 22.3986
lfoot -11.4086 12.5824
ltoes -13.4422
875
root 8.54346 15.5247 6.15828 179.339 3.20521 -182.741
lowerback 9.19435 2.06754 0.631558
upperback -3.62886 2.82009 -0.8076
thorax -8.95122 1.31897 -1.68747
lowerneck -8.21483 8.91759 2.89375
upperneck 10.4087 10.974 4.5158
head 4.3635 5.72378 1.58747
rclavicle 9.23106e-015 3.18055e-015
rhumerus -37.2025 15.4979 -86.6762
rradius 60.6226
rwrist 8.06068
rhand -8.08162 -51.845
rfingers 7.12502
rthumb -162.17 -261.048
lclavicle 9.23106e-015 3.18055e-015
lhumerus -48.6976 14.3117 61.1923
lradius 42.6495
lwrist -7.39833
lhand -4.58192 -35.9328
lfingers 7.12502
lthumb 21.1951 -7.07152
rfemur -0.797239 -1.44505 18.3878
rtibia 61.3192
rfoot 16.6064 -6.44093
rtoes 2.98031
lfemur -14.9297 -6.26592 -29.663
ltibia 22.3697
lfoot -11.658 12.0789
ltoes -12.8932
876
root 8.53179 15.5253 6.05294 179.314 2.90833 -182.659
lowerback 9.25252 1.93462 0.716192
upperback -3.66401 2.65588 -0.777995
thorax -9.02602 1.23425 -1.68003
lowerneck -7.94835 8.91986 3.27322
upperneck 10.4304 10.9771 4.17089
head 4.36821 5.71713 1.41721
rclavicle -1.25607e-014 1.05356e-014
rhumerus -37.6848 15.1025 -86.509
rradius 60.9735
rwrist 7.9777
rhand -8.33493 -50.7867
rfingers 7.12502
rthumb -162.413 -260.011
lclavicle -1.25607e-014 1.05356e-014
lhumerus -48.224 13.931 61.5762
lradius 42.9562
lwrist -7.2398
lhand -4.66539 -35.9528
lfingers 7.12502
lthumb 21.1149 -7.08248
rfemur -2.28529 -2.05634 18.3755
rtibia 63.1527
rfoot 15.4825 -5.85506
rtoes 3.4039
lfemur -14.4812 -6.12959 -29.7496
ltibia 22.3961
lfoot -11.7544 11.7155
ltoes -13.324
877
root 8.51806 15.5235 5.94505 179.213 2.58112 -182.784
lowerback 9.34656 1.82126 0.630813
upperback -3.64596 2.49334 -0.759746
thorax -9.07077 1.15982 -1.58899
lowerneck -7.82644 8.94356 3.07688
upperneck 10.4076 11.0208 4.33192
head 4.32008 5.7386 1.48907
rclavicle 1.84373e-014 7.15625e-015
rhumerus -38.2847 14.6929 -86.2251
rradius 61.6081
rwrist 7.71738
rhand -8.8158 -50.1501
rfingers 7.12502
rthumb -162.876 -259.415
lclavicle 1.84373e-014 7.15625e-015
lhumerus -47.7129 13.6147 62.138
lradius 43.3066
lwrist -7.24231
lhand -4.96445 -35.6304
lfingers 7.12502
lthumb 20.8276 -6.72834
rfemur -3.64803 -2.62221 18.1276
rtibia 64.8224
rfoot 12.8446 -5.20764
rtoes -1.36354
lfemur -13.9632 -6.03376 -30.0782
ltibia 22.466
lfoot -11.9558 11.462
ltoes -14.3451
878
root 8.50601 15.5261 5.83756 179.057 2.26889 -182.906
lowerback 9.49762 1.73056 0.541841
upperback -3.58629 2.35699 -0.766894
thorax -9.10133 1.09714 -1.52786
lowerneck -7.9696 8.97902 2.68463
upperneck 10.4887 11.0615 4.73148
head 4.32215 5.76778 1.67694
rclavicle -1.39646e-014 2.78299e-015
rhumerus -38.6761 14.3496 -86.0456
rradius 62.1595
rwrist 7.07851
rhand -9.14051 -50.6282
rfingers 7.12502
rthumb -163.189 -259.92
lclavicle -1.39646e-014 2.78299e-015
lhumerus -47.0417 13.4415 62.6499
lradius 43.5019
lwrist -7.43135
lhand -5.17478 -35.7851
lfingers 7.12502
lthumb 20.6255 -6.86098
rfemur -4.95427 -3.11001 17.9082
rtibia 66.3075
rfoot 10.5774 -4.64846
rtoes -2.22074
lfemur -13.379 -5.89279 -30.3874
ltibia 22.5049
lfoot -12.2284 11.3119
ltoes -16.5311
879
root 8.49337 15.5307 5.73319 178.975 1.76145 -182.898
lowerback 9.61528 1.56285 0.645943
upperback -3.54469 2.14123 -0.801751
thorax -9.12552 0.984276 -1.58981
lowerneck -7.86109 9.04243 2.98099
upperneck 10.5362 11.1182 4.63008
head 4.34176 5.79884 1.60306
rclavicle -1.79652e-014 -2.78299e-015
rhumerus -38.9871 13.9667 -85.9253
rradius 62.695
rwrist 6.49297
rhand -9.15844 -51.3508
rfingers 7.12502
rthumb -163.206 -260.645
lclavicle -1.79652e-014 -2.78299e-015
lhumerus -46.3422 13.1412 63.0837
lradius 43.7575
lwrist -7.44273
lhand -5.18096 -36.2846
lfingers 7.12502
lthumb 20.6195 -7.35983
rfemur -6.30899 -3.76298 17.8611
rtibia 67.5954
rfoot 8.47288 -4.38223
rtoes -3.05112
lfemur -12.8691 -5.98227 -30.5481
ltibia 22.5037
lfoot -12.4287 11.204
ltoes -18.9765
880
root 8.47882 15.5314 5.63064 178.952 1.19395 -182.895
lowerback 9.66466 1.36454 0.740727
upperback -3.53614 1.8864 -0.814034
thorax -9.14906 0.854327 -1.61385
lowerneck -7.72923 9.03241 3.14098
upperneck 10.4831 11.1022 4.53052
head 4.31916 5.78905 1.54072
rclavicle -7.90169e-015 3.97569e-015
rhumerus -39.5036 13.5424 -85.7064
rradius 63.2968
rwrist 6.35614
rhand -9.00054 -51.2287
rfingers 7.12502
rthumb -163.054 -260.509
lclavicle -7.90169e-015 3.97569e-015
lhumerus -45.723 12.827 63.5298
lradius 44.1261
lwrist -7.3036
lhand -5.00938 -36.2695
lfingers 7.12502
lthumb 20.7844 -7.36265
rfemur -7.68121 -4.42979 17.8296
rtibia 68.7192
rfoot 6.57018 -4.18682
rtoes -5.61136
lfemur -12.43 -6.17627 -30.712
ltibia 22.5287
lfoot -12.6729 11.0678
ltoes -20.2378
881
root 8.46887 15.5303 5.52888 178.894 0.934966 -182.896
lowerback 9.17296 1.28027 0.652424
upperback -3.17519 1.75949 -0.705793
thorax -8.47882 0.807098 -1.4035
lowerneck -7.87812 9.03749 3.04261
upperneck 10.3357 11.1369 4.44998
head 4.29656 5.8009 1.53608
rclavicle -6.53505e-015 1.39149e-015
rhumerus -39.5167 13.2781 -85.1657
rradius 63.9082
rwrist 6.07886
rhand -8.23665 -51.8134
rfingers 7.12502
rthumb -162.319 -261.029
lclavicle -6.53505e-015 1.39149e-015
lhumerus -44.744 12.9411 64.1974
lradius 44.5875
lwrist -7.19019
lhand -4.91968 -35.7684
lfingers 7.12502
lthumb 20.8706 -6.87104
rfemur -9.03113 -4.73478 17.8475
rtibia 69.7147
rfoot 5.0036 -4.08479
rtoes -8.44033
lfemur -11.9892 -6.07481 -30.8439
ltibia 22.6237
lfoot -13.1122 10.78
ltoes -19.4212
